<?xml version="1.0" encoding="UTF-8" standalone="no"?>
<!-- Created with Inkscape (http://www.inkscape.org/) -->

<svg
   width="400"
   height="100"
   viewBox="0 0 105.83333 26.458332"
   version="1.1"
   id="svg5"
   inkscape:version="1.1 (c68e22c387, 2021-05-23)"
   sodipodi:docname="image-deleted.svg"
   xmlns:inkscape="http://www.inkscape.org/namespaces/inkscape"
   xmlns:sodipodi="http://sodipodi.sourceforge.net/DTD/sodipodi-0.dtd"
   xmlns:xlink="http://www.w3.org/1999/xlink"
   xmlns="http://www.w3.org/2000/svg"
   xmlns:svg="http://www.w3.org/2000/svg">
  <sodipodi:namedview
     id="namedview7"
     pagecolor="#505050"
     bordercolor="#ffffff"
     borderopacity="1"
     inkscape:pageshadow="0"
     inkscape:pageopacity="0"
     inkscape:pagecheckerboard="1"
     inkscape:document-units="mm"
     showgrid="false"
     inkscape:zoom="1.0494603"
     inkscape:cx="303.01289"
     inkscape:cy="173.42247"
     inkscape:window-width="1920"
     inkscape:window-height="1011"
     inkscape:window-x="0"
     inkscape:window-y="32"
     inkscape:window-maximized="1"
     inkscape:current-layer="layer1"
     fit-margin-top="0"
     fit-margin-left="0"
     fit-margin-right="0"
     fit-margin-bottom="0"
     units="px"
     width="375px"
     scale-x="1"
     height="36.75454px" />
  <defs
     id="defs2">
    <linearGradient
       inkscape:collect="always"
       id="linearGradient18530">
      <stop
         style="stop-color:#3cb0f5;stop-opacity:1"
         offset="0"
         id="stop18526" />
      <stop
         style="stop-color:#2761d0;stop-opacity:0"
         offset="1"
         id="stop18528" />
    </linearGradient>
    <linearGradient
       inkscape:collect="always"
       xlink:href="#linearGradient18530"
       id="linearGradient18532"
       x1="74.741295"
       y1="131.31212"
       x2="74.552048"
       y2="149.80917"
       gradientUnits="userSpaceOnUse"
       gradientTransform="matrix(0.51756088,0,0,0.51756087,10.033609,61.840957)" />
    <linearGradient
       inkscape:collect="always"
       xlink:href="#linearGradient18530"
       id="linearGradient838"
       gradientUnits="userSpaceOnUse"
       gradientTransform="matrix(0.51756088,0,0,0.51756087,10.033609,61.840957)"
       x1="74.741295"
       y1="131.31212"
       x2="74.552048"
       y2="149.80917" />
    <linearGradient
       inkscape:collect="always"
       xlink:href="#linearGradient18530"
       id="linearGradient840"
       gradientUnits="userSpaceOnUse"
       gradientTransform="matrix(0.51756088,0,0,0.51756087,10.033609,61.840957)"
       x1="74.741295"
       y1="131.31212"
       x2="74.552048"
       y2="149.80917" />
    <linearGradient
       inkscape:collect="always"
       xlink:href="#linearGradient18530"
       id="linearGradient842"
       gradientUnits="userSpaceOnUse"
       gradientTransform="matrix(0.51756088,0,0,0.51756087,10.033609,61.840957)"
       x1="74.741295"
       y1="131.31212"
       x2="74.552048"
       y2="149.80917" />
    <linearGradient
       inkscape:collect="always"
       xlink:href="#linearGradient18530"
       id="linearGradient844"
       gradientUnits="userSpaceOnUse"
       gradientTransform="matrix(0.51756088,0,0,0.51756087,10.033609,61.840957)"
       x1="74.741295"
       y1="131.31212"
       x2="74.552048"
       y2="149.80917" />
    <linearGradient
       inkscape:collect="always"
       xlink:href="#linearGradient18530"
       id="linearGradient846"
       gradientUnits="userSpaceOnUse"
       gradientTransform="matrix(0.51756088,0,0,0.51756087,10.033609,61.840957)"
       x1="74.741295"
       y1="131.31212"
       x2="74.552048"
       y2="149.80917" />
    <linearGradient
       inkscape:collect="always"
       xlink:href="#linearGradient18530"
       id="linearGradient848"
       gradientUnits="userSpaceOnUse"
       gradientTransform="matrix(0.51756088,0,0,0.51756087,10.033609,61.840957)"
       x1="74.741295"
       y1="131.31212"
       x2="74.552048"
       y2="149.80917" />
    <linearGradient
       inkscape:collect="always"
       xlink:href="#linearGradient18530"
       id="linearGradient850"
       gradientUnits="userSpaceOnUse"
       gradientTransform="matrix(0.51756088,0,0,0.51756087,10.033609,61.840957)"
       x1="74.741295"
       y1="131.31212"
       x2="74.552048"
       y2="149.80917" />
    <linearGradient
       inkscape:collect="always"
       xlink:href="#linearGradient18530"
       id="linearGradient852"
       gradientUnits="userSpaceOnUse"
       gradientTransform="matrix(0.51756088,0,0,0.51756087,10.033609,61.840957)"
       x1="74.741295"
       y1="131.31212"
       x2="74.552048"
       y2="149.80917" />
    <linearGradient
       inkscape:collect="always"
       xlink:href="#linearGradient18530"
       id="linearGradient854"
       gradientUnits="userSpaceOnUse"
       gradientTransform="matrix(0.51756088,0,0,0.51756087,10.033609,61.840957)"
       x1="74.741295"
       y1="131.31212"
       x2="74.552048"
       y2="149.80917" />
    <linearGradient
       inkscape:collect="always"
       xlink:href="#linearGradient18530"
       id="linearGradient856"
       gradientUnits="userSpaceOnUse"
       gradientTransform="matrix(0.51756088,0,0,0.51756087,10.033609,61.840957)"
       x1="74.741295"
       y1="131.31212"
       x2="74.552048"
       y2="149.80917" />
    <linearGradient
       inkscape:collect="always"
       xlink:href="#linearGradient18530"
       id="linearGradient858"
       gradientUnits="userSpaceOnUse"
       gradientTransform="matrix(0.51756088,0,0,0.51756087,10.033609,61.840957)"
       x1="74.741295"
       y1="131.31212"
       x2="74.552048"
       y2="149.80917" />
    <linearGradient
       inkscape:collect="always"
       xlink:href="#linearGradient18530"
       id="linearGradient860"
       gradientUnits="userSpaceOnUse"
       gradientTransform="matrix(0.51756088,0,0,0.51756087,10.033609,61.840957)"
       x1="74.741295"
       y1="131.31212"
       x2="74.552048"
       y2="149.80917" />
  </defs>
  <g
     inkscape:label="Capa 1"
     inkscape:groupmode="layer"
     id="layer1"
     transform="translate(-17.871136,-125.32323)">
    <g
       aria-label="Image deleted"
       transform="matrix(0.99904098,0,0,1.0009599,6.6149043,6.2838689)"
       id="text2534"
       style="font-size:14.3955px;line-height:1.25;font-family:Ubuntu;-inkscape-font-specification:Ubuntu;opacity:1;fill:url(#linearGradient18532);stroke-width:0.35989">
      <path
         d="m 20.277944,126.39788 h 1.813833 l -2.389653,9.97608 h -1.813833 z"
         style="font-style:italic;font-weight:500;-inkscape-font-specification:'Ubuntu Medium Italic';fill:url(#linearGradient838)"
         id="path827" />
      <path
         d="m 23.660877,129.16182 q 0.57582,-0.17275 1.295595,-0.3167 0.719775,-0.15835 1.583505,-0.15835 0.647797,0 1.079662,0.18714 0.446261,0.18714 0.748566,0.53263 0.41747,-0.24472 1.007685,-0.47505 0.604611,-0.24472 1.367573,-0.24472 0.662193,0 1.122849,0.18714 0.460656,0.18714 0.748566,0.51823 0.28791,0.3311 0.417469,0.79176 0.12956,0.44626 0.12956,0.97889 0,0.59022 -0.158351,1.25241 l -0.950103,3.95876 h -1.741855 l 0.892521,-3.77162 q 0.07198,-0.27351 0.129559,-0.59021 0.07198,-0.3311 0.07198,-0.6622 0,-0.23033 -0.05758,-0.44626 -0.04319,-0.23033 -0.172746,-0.38868 -0.12956,-0.15835 -0.359888,-0.25912 -0.215932,-0.10076 -0.561424,-0.10076 -0.374283,0 -0.734171,0.14395 -0.359887,0.14396 -0.604611,0.30231 0.05758,0.27351 0.05758,0.59021 0,0.28791 -0.04319,0.60461 -0.04319,0.3167 -0.115164,0.61901 l -0.950103,3.95876 h -1.741856 l 0.892521,-3.77162 q 0.07198,-0.25912 0.12956,-0.59021 0.07198,-0.3455 0.07198,-0.67659 0,-0.47505 -0.230328,-0.82055 -0.215932,-0.35988 -0.834939,-0.35988 -0.28791,0 -0.547029,0.0432 -0.259119,0.0288 -0.475051,0.0864 l -1.453946,6.08929 h -1.741855 z"
         style="font-style:italic;font-weight:500;-inkscape-font-specification:'Ubuntu Medium Italic';fill:url(#linearGradient840)"
         id="path829" />
      <path
         d="m 40.633157,133.45168 q -0.04319,0.15835 -0.08637,0.51823 -0.04319,0.35989 -0.04319,0.67659 0,0.41747 0.07198,0.82055 0.07198,0.38867 0.230328,0.79175 l -1.554714,0.23033 q -0.172746,-0.3455 -0.273514,-0.73417 -0.359888,0.3167 -0.892521,0.57582 -0.518238,0.24472 -1.180432,0.24472 -0.676588,0 -1.166035,-0.21593 -0.475052,-0.23033 -0.777357,-0.61901 -0.302306,-0.40307 -0.446261,-0.93571 -0.143955,-0.53263 -0.143955,-1.15164 0,-1.05087 0.374283,-1.95779 0.374283,-0.90691 1.036476,-1.5691 0.676589,-0.6622 1.597901,-1.03648 0.921312,-0.38868 2.01537,-0.38868 0.561425,0 1.122849,0.10077 0.57582,0.0864 1.15164,0.34549 z m -0.950103,-3.25339 q -0.273514,-0.0576 -0.619006,-0.0576 -0.647798,0 -1.194827,0.28791 -0.547029,0.27352 -0.950103,0.74857 -0.388679,0.46065 -0.604611,1.06526 -0.215933,0.60461 -0.215933,1.26681 0,0.33109 0.05758,0.619 0.05758,0.28791 0.187142,0.50385 0.143955,0.21593 0.374283,0.34549 0.230328,0.12956 0.590216,0.12956 0.460656,0 0.806148,-0.18714 0.359887,-0.20154 0.662193,-0.53264 0.0144,-0.37428 0.05758,-0.70538 0.05758,-0.33109 0.143955,-0.66219 z"
         style="font-style:italic;font-weight:500;-inkscape-font-specification:'Ubuntu Medium Italic';fill:url(#linearGradient842)"
         id="path831" />
      <path
         d="m 44.203223,137.61198 q 1.065267,0 1.5979,-0.48945 0.547029,-0.48945 0.734171,-1.33878 l 0.04319,-0.20154 q -0.28791,0.14395 -0.690984,0.27351 -0.403074,0.11517 -0.849334,0.11517 -1.266804,0 -1.885811,-0.67659 -0.604611,-0.69098 -0.604611,-1.82823 0,-1.03647 0.359888,-1.9146 0.359887,-0.87813 1.007685,-1.51153 0.662193,-0.6478 1.583505,-1.00768 0.921312,-0.35989 2.044161,-0.35989 0.547029,0 1.166036,0.12956 0.633402,0.11516 1.137244,0.38868 l -1.525923,6.3916 q -0.201537,0.84933 -0.518238,1.49713 -0.302305,0.66219 -0.806148,1.09406 -0.503843,0.44626 -1.252409,0.67659 -0.73417,0.23033 -1.785042,0.23033 -0.762961,0 -1.381968,-0.17275 -0.604611,-0.15835 -1.065267,-0.40307 l 0.619007,-1.41076 q 0.388678,0.23033 0.892521,0.37428 0.518238,0.14396 1.180431,0.14396 z m 1.266804,-3.05185 q 0.388678,0 0.791752,-0.14396 0.41747,-0.14395 0.690984,-0.35988 l 0.921313,-3.8436 q -0.331097,-0.072 -0.647798,-0.072 -0.662193,0 -1.209222,0.24472 -0.532634,0.24473 -0.921312,0.6622 -0.388679,0.41747 -0.604611,0.97889 -0.215933,0.54703 -0.215933,1.18043 0,0.6334 0.273515,0.99329 0.273514,0.35989 0.921312,0.35989 z"
         style="font-style:italic;font-weight:500;-inkscape-font-specification:'Ubuntu Medium Italic';fill:url(#linearGradient844)"
         id="path833" />
      <path
         d="m 50.62359,133.65321 q 0,-0.9645 0.302305,-1.85702 0.316701,-0.90691 0.892521,-1.5979 0.590216,-0.70538 1.410759,-1.12285 0.820544,-0.41747 1.842624,-0.41747 1.094058,0 1.698669,0.56143 0.604611,0.56142 0.604611,1.43955 0,0.90692 -0.44626,1.46834 -0.446261,0.56142 -1.166036,0.87813 -0.705379,0.3167 -1.612296,0.43186 -0.892521,0.11516 -1.813833,0.14396 -0.0144,0.0288 -0.0144,0.0576 v 0.14395 q 0,1.30999 1.655482,1.30999 0.978894,0 1.957788,-0.40307 l 0.143955,1.41076 q -0.345492,0.15835 -0.978894,0.3167 -0.633402,0.15835 -1.43955,0.15835 -0.806148,0 -1.381968,-0.23033 -0.57582,-0.23033 -0.950103,-0.6334 -0.359887,-0.40307 -0.532633,-0.92131 -0.172746,-0.53264 -0.172746,-1.13725 z m 4.18909,-3.57008 q -0.431865,0 -0.820543,0.17274 -0.388679,0.17275 -0.690984,0.47506 -0.302306,0.3023 -0.532634,0.71977 -0.215932,0.40308 -0.316701,0.87813 1.72746,-0.0576 2.504817,-0.41747 0.791753,-0.35989 0.791753,-1.07967 0,-0.28791 -0.215933,-0.51823 -0.201537,-0.23033 -0.719775,-0.23033 z"
         style="font-style:italic;font-weight:500;-inkscape-font-specification:'Ubuntu Medium Italic';fill:url(#linearGradient846)"
         id="path835" />
      <path
         d="m 64.097757,136.5755 q -0.676588,0 -1.166035,-0.21593 -0.489447,-0.23033 -0.806148,-0.61901 -0.302306,-0.38868 -0.446261,-0.92131 -0.143955,-0.53264 -0.143955,-1.15164 0,-0.9645 0.331097,-1.85702 0.345492,-0.90692 0.964498,-1.58351 0.633402,-0.69098 1.540319,-1.09405 0.906916,-0.41747 2.058556,-0.41747 0.143955,0 0.345492,0.0144 0.201537,0.0144 0.446261,0.072 l 0.791752,-3.31097 1.813833,-0.28791 -1.972183,8.16225 q -0.07198,0.3311 -0.115164,0.67659 -0.02879,0.3311 -0.02879,0.6334 0,0.38868 0.07198,0.77736 0.07198,0.38868 0.230328,0.80615 l -1.554714,0.23033 q -0.15835,-0.30231 -0.273514,-0.73417 -0.359888,0.3167 -0.878126,0.57582 -0.518238,0.24472 -1.209222,0.24472 z m 2.778332,-6.36281 q -0.273515,-0.0576 -0.662193,-0.0576 -0.662193,0 -1.209222,0.28791 -0.547029,0.27351 -0.935708,0.74856 -0.388678,0.46066 -0.604611,1.06527 -0.201537,0.60461 -0.201537,1.25241 0,0.33109 0.05758,0.619 0.07198,0.28791 0.215933,0.50385 0.143955,0.21593 0.374283,0.34549 0.244723,0.12956 0.590215,0.12956 0.460656,0 0.806148,-0.18714 0.359888,-0.18714 0.676589,-0.51824 0.01439,-0.30231 0.05758,-0.6334 0.05758,-0.3311 0.129559,-0.6478 z"
         style="font-style:italic;font-weight:500;-inkscape-font-specification:'Ubuntu Medium Italic';fill:url(#linearGradient848)"
         id="path837" />
      <path
         d="m 69.798353,133.65321 q 0,-0.9645 0.302305,-1.85702 0.316701,-0.90691 0.892521,-1.5979 0.590216,-0.70538 1.410759,-1.12285 0.820544,-0.41747 1.842624,-0.41747 1.094058,0 1.698669,0.56143 0.604611,0.56142 0.604611,1.43955 0,0.90692 -0.44626,1.46834 -0.446261,0.56142 -1.166036,0.87813 -0.705379,0.3167 -1.612296,0.43186 -0.892521,0.11516 -1.813833,0.14396 -0.01439,0.0288 -0.01439,0.0576 v 0.14395 q 0,1.30999 1.655482,1.30999 0.978894,0 1.957788,-0.40307 l 0.143955,1.41076 q -0.345492,0.15835 -0.978894,0.3167 -0.633402,0.15835 -1.43955,0.15835 -0.806148,0 -1.381968,-0.23033 -0.57582,-0.23033 -0.950103,-0.6334 -0.359887,-0.40307 -0.532633,-0.92131 -0.172746,-0.53264 -0.172746,-1.13725 z m 4.18909,-3.57008 q -0.431865,0 -0.820543,0.17274 -0.388679,0.17275 -0.690984,0.47506 -0.302306,0.3023 -0.532634,0.71977 -0.215932,0.40308 -0.316701,0.87813 1.72746,-0.0576 2.504817,-0.41747 0.791753,-0.35989 0.791753,-1.07967 0,-0.28791 -0.215933,-0.51823 -0.201537,-0.23033 -0.719775,-0.23033 z"
         style="font-style:italic;font-weight:500;-inkscape-font-specification:'Ubuntu Medium Italic';fill:url(#linearGradient850)"
         id="path839" />
      <path
         d="m 79.860792,136.51792 q -0.676588,-0.0144 -1.15164,-0.17275 -0.460656,-0.15835 -0.748566,-0.43186 -0.273515,-0.27352 -0.403074,-0.6478 -0.115164,-0.37428 -0.115164,-0.82054 0,-0.46066 0.100768,-0.9645 0.115164,-0.51824 0.244724,-1.02208 l 1.669878,-6.96743 1.813833,-0.28791 q -0.44626,1.88581 -0.892521,3.75723 -0.44626,1.85702 -0.906916,3.74283 -0.07198,0.30231 -0.158351,0.60461 -0.08637,0.28791 -0.08637,0.57582 0,0.24472 0,0.46066 0.0144,0.20153 0.115164,0.35988 0.115164,0.14396 0.331097,0.24473 0.215932,0.10077 0.561424,0.12956 z"
         style="font-style:italic;font-weight:500;-inkscape-font-specification:'Ubuntu Medium Italic';fill:url(#linearGradient852)"
         id="path841" />
      <path
         d="m 81.487451,133.65321 q 0,-0.9645 0.302305,-1.85702 0.316701,-0.90691 0.892521,-1.5979 0.590216,-0.70538 1.410759,-1.12285 0.820544,-0.41747 1.842624,-0.41747 1.094058,0 1.698669,0.56143 0.604611,0.56142 0.604611,1.43955 0,0.90692 -0.44626,1.46834 -0.446261,0.56142 -1.166036,0.87813 -0.705379,0.3167 -1.612296,0.43186 -0.892521,0.11516 -1.813833,0.14396 -0.01439,0.0288 -0.01439,0.0576 v 0.14395 q 0,1.30999 1.655482,1.30999 0.978894,0 1.957788,-0.40307 l 0.143955,1.41076 q -0.345492,0.15835 -0.978894,0.3167 -0.633402,0.15835 -1.43955,0.15835 -0.806148,0 -1.381968,-0.23033 -0.57582,-0.23033 -0.950103,-0.6334 -0.359887,-0.40307 -0.532633,-0.92131 -0.172746,-0.53264 -0.172746,-1.13725 z m 4.18909,-3.57008 q -0.431865,0 -0.820543,0.17274 -0.388679,0.17275 -0.690984,0.47506 -0.302306,0.3023 -0.532634,0.71977 -0.215932,0.40308 -0.316701,0.87813 1.72746,-0.0576 2.504817,-0.41747 0.791753,-0.35989 0.791753,-1.07967 0,-0.28791 -0.215933,-0.51823 -0.201537,-0.23033 -0.719775,-0.23033 z"
         style="font-style:italic;font-weight:500;-inkscape-font-specification:'Ubuntu Medium Italic';fill:url(#linearGradient854)"
         id="path843" />
      <path
         d="m 90.758138,126.85854 1.813833,-0.28791 -0.547029,2.27449 h 2.46163 l -0.345492,1.43955 h -2.46163 l -0.719775,2.97986 q -0.07198,0.31671 -0.100769,0.53264 -0.02879,0.20153 -0.02879,0.37428 0,0.17275 0.02879,0.34549 0.04319,0.15835 0.143955,0.28791 0.115164,0.11517 0.316701,0.20154 0.215933,0.072 0.57582,0.072 0.388679,0 0.748566,-0.10077 0.359888,-0.10077 0.633402,-0.21593 l 0.12956,1.39636 q -0.331097,0.14395 -0.834939,0.27351 -0.503843,0.12956 -1.180431,0.12956 -1.238013,0 -1.770647,-0.53263 -0.532633,-0.54703 -0.532633,-1.48274 0,-0.34549 0.04319,-0.70538 0.05758,-0.37428 0.158351,-0.79175 z"
         style="font-style:italic;font-weight:500;-inkscape-font-specification:'Ubuntu Medium Italic';fill:url(#linearGradient856)"
         id="path845" />
      <path
         d="m 94.788858,133.65321 q 0,-0.9645 0.302305,-1.85702 0.316701,-0.90691 0.892521,-1.5979 0.590216,-0.70538 1.410759,-1.12285 0.820544,-0.41747 1.842624,-0.41747 1.094063,0 1.698673,0.56143 0.60461,0.56142 0.60461,1.43955 0,0.90692 -0.44626,1.46834 -0.44626,0.56142 -1.166039,0.87813 -0.705379,0.3167 -1.612296,0.43186 -0.892521,0.11516 -1.813833,0.14396 -0.01439,0.0288 -0.01439,0.0576 v 0.14395 q 0,1.30999 1.655482,1.30999 0.978894,0 1.957796,-0.40307 l 0.14395,1.41076 q -0.345495,0.15835 -0.978897,0.3167 -0.633402,0.15835 -1.43955,0.15835 -0.806148,0 -1.381968,-0.23033 -0.57582,-0.23033 -0.950103,-0.6334 -0.359887,-0.40307 -0.532633,-0.92131 -0.172746,-0.53264 -0.172746,-1.13725 z m 4.18909,-3.57008 q -0.431865,0 -0.820543,0.17274 -0.388679,0.17275 -0.690984,0.47506 -0.302306,0.3023 -0.532634,0.71977 -0.215932,0.40308 -0.316701,0.87813 1.72746,-0.0576 2.504817,-0.41747 0.791753,-0.35989 0.791753,-1.07967 0,-0.28791 -0.215933,-0.51823 -0.201537,-0.23033 -0.719775,-0.23033 z"
         style="font-style:italic;font-weight:500;-inkscape-font-specification:'Ubuntu Medium Italic';fill:url(#linearGradient858)"
         id="path847" />
      <path
         d="m 104.8513,136.5755 q -0.67659,0 -1.16604,-0.21593 -0.48945,-0.23033 -0.80615,-0.61901 -0.3023,-0.38868 -0.44626,-0.92131 -0.14395,-0.53264 -0.14395,-1.15164 0,-0.9645 0.33109,-1.85702 0.3455,-0.90692 0.9645,-1.58351 0.63341,-0.69098 1.54032,-1.09405 0.90692,-0.41747 2.05856,-0.41747 0.14395,0 0.34549,0.0144 0.20154,0.0144 0.44626,0.072 l 0.79175,-3.31097 1.81384,-0.28791 -1.97219,8.16225 q -0.072,0.3311 -0.11516,0.67659 -0.0288,0.3311 -0.0288,0.6334 0,0.38868 0.072,0.77736 0.072,0.38868 0.23032,0.80615 l -1.55471,0.23033 q -0.15835,-0.30231 -0.27352,-0.73417 -0.35988,0.3167 -0.87812,0.57582 -0.51824,0.24472 -1.20922,0.24472 z m 2.77833,-6.36281 q -0.27352,-0.0576 -0.66219,-0.0576 -0.6622,0 -1.20923,0.28791 -0.54703,0.27351 -0.9357,0.74856 -0.38868,0.46066 -0.60461,1.06527 -0.20154,0.60461 -0.20154,1.25241 0,0.33109 0.0576,0.619 0.072,0.28791 0.21593,0.50385 0.14396,0.21593 0.37429,0.34549 0.24472,0.12956 0.59021,0.12956 0.46066,0 0.80615,-0.18714 0.35989,-0.18714 0.67659,-0.51824 0.0144,-0.30231 0.0576,-0.6334 0.0576,-0.3311 0.12956,-0.6478 z"
         style="font-style:italic;font-weight:500;-inkscape-font-specification:'Ubuntu Medium Italic';fill:url(#linearGradient860)"
         id="path849" />
    </g>
  </g>
</svg>
