<?xml version="1.0" encoding="UTF-8" standalone="no"?>
<!-- Created with Inkscape (http://www.inkscape.org/) -->

<svg
   width="148.58849"
   height="148.58849"
   viewBox="0 0 39.314036 39.314035"
   version="1.1"
   id="svg5"
   inkscape:version="1.1 (c68e22c387, 2021-05-23)"
   sodipodi:docname="image-deleted-small.svg"
   xmlns:inkscape="http://www.inkscape.org/namespaces/inkscape"
   xmlns:sodipodi="http://sodipodi.sourceforge.net/DTD/sodipodi-0.dtd"
   xmlns:xlink="http://www.w3.org/1999/xlink"
   xmlns="http://www.w3.org/2000/svg"
   xmlns:svg="http://www.w3.org/2000/svg">
  <sodipodi:namedview
     id="namedview7"
     pagecolor="#505050"
     bordercolor="#ffffff"
     borderopacity="1"
     inkscape:pageshadow="0"
     inkscape:pageopacity="0"
     inkscape:pagecheckerboard="1"
     inkscape:document-units="mm"
     showgrid="false"
     inkscape:zoom="2.0989206"
     inkscape:cx="40.020571"
     inkscape:cy="19.53385"
     inkscape:window-width="1920"
     inkscape:window-height="1011"
     inkscape:window-x="0"
     inkscape:window-y="32"
     inkscape:window-maximized="1"
     inkscape:current-layer="text2534"
     fit-margin-top="0"
     fit-margin-left="0"
     fit-margin-right="0"
     fit-margin-bottom="0"
     units="px"
     width="148.58849px"
     scale-x="1"
     height="36.75454px" />
  <defs
     id="defs2">
    <linearGradient
       inkscape:collect="always"
       id="linearGradient18530">
      <stop
         style="stop-color:#3cb0f5;stop-opacity:1"
         offset="0"
         id="stop18526" />
      <stop
         style="stop-color:#2761d0;stop-opacity:0"
         offset="1"
         id="stop18528" />
    </linearGradient>
    <linearGradient
       inkscape:collect="always"
       xlink:href="#linearGradient18530"
       id="linearGradient18532"
       x1="74.741295"
       y1="131.31212"
       x2="74.552048"
       y2="149.80917"
       gradientUnits="userSpaceOnUse"
       gradientTransform="matrix(0.51756088,0,0,0.51756087,10.033609,61.840957)" />
    <linearGradient
       inkscape:collect="always"
       xlink:href="#linearGradient18530"
       id="linearGradient848"
       gradientUnits="userSpaceOnUse"
       gradientTransform="matrix(0.41034286,0,0,0.41034285,4.3598036,87.222923)"
       x1="74.741295"
       y1="131.31212"
       x2="74.552048"
       y2="149.80917" />
  </defs>
  <g
     inkscape:label="Capa 1"
     inkscape:groupmode="layer"
     id="layer1"
     transform="translate(-51.530846,-128.73024)">
    <g
       aria-label="Image deleted"
       transform="matrix(0.99904098,0,0,1.0009599,6.6149043,6.2838689)"
       id="text2534"
       style="font-size:14.3955px;line-height:1.25;font-family:Ubuntu;-inkscape-font-specification:Ubuntu;opacity:1;fill:url(#linearGradient18532);stroke-width:0.35989">
      <path
         id="path837"
         style="font-style:italic;font-weight:500;-inkscape-font-specification:'Ubuntu Medium Italic';fill:url(#linearGradient848);stroke-width:0.285334"
         d="m 51.76648,137.45889 -1.438237,0.2284 -0.62746,2.62496 c -0.129353,-0.0304 -0.247398,-0.0493 -0.353921,-0.0569 -0.106525,-0.008 -0.19786,-0.0115 -0.273951,-0.0115 -0.608709,0 -1.152856,0.11007 -1.632218,0.33073 -0.479358,0.21304 -0.886089,0.50211 -1.220879,0.86734 -0.32718,0.35761 -0.582232,0.77642 -0.764845,1.25579 -0.175005,0.47174 -0.262468,0.96252 -0.262468,1.47231 0,0.32718 0.03791,0.63125 0.114009,0.91279 0.07609,0.28152 0.194133,0.5252 0.353922,0.73064 0.167395,0.20544 0.38024,0.36902 0.638943,0.49077 0.258702,0.11414 0.567167,0.17108 0.924786,0.17108 0.365226,0 0.684493,-0.0647 0.958414,-0.19401 0.273919,-0.13695 0.506135,-0.28899 0.696356,-0.45639 0.06087,0.22826 0.13325,0.42227 0.216947,0.58205 l 1.232365,-0.18256 c -0.08369,-0.22066 -0.144452,-0.43391 -0.182497,-0.63935 -0.03805,-0.20543 -0.05701,-0.41059 -0.05701,-0.61603 0,-0.15977 0.0077,-0.32721 0.02297,-0.50223 0.02283,-0.18261 0.053,-0.3616 0.09105,-0.53662 z m 9.073563,0 -1.438236,0.2284 -1.323818,5.52375 c -0.06848,0.2663 -0.133109,0.53652 -0.19398,0.81044 -0.05326,0.26632 -0.07997,0.52113 -0.07997,0.76461 0,0.23588 0.03058,0.45298 0.09145,0.65082 0.06848,0.19783 0.174901,0.36913 0.31947,0.51369 0.152178,0.14458 0.349937,0.2585 0.593423,0.34219 0.251093,0.0837 0.555684,0.12952 0.913303,0.13713 l 0.296506,-1.1416 c -0.182614,-0.0152 -0.330832,-0.0494 -0.444964,-0.10272 -0.114135,-0.0533 -0.201598,-0.11794 -0.262467,-0.19403 -0.05326,-0.0837 -0.08384,-0.17878 -0.09145,-0.28529 v -0.36511 c 0,-0.15218 0.02284,-0.30422 0.06849,-0.45639 0.04565,-0.15978 0.08745,-0.31994 0.125493,-0.47972 0.243483,-0.99677 0.483446,-1.9856 0.719322,-2.96716 0.235876,-0.98915 0.471554,-1.98225 0.70743,-2.97901 z m 23.237349,0 -1.437828,0.2284 -0.627869,2.62496 c -0.12935,-0.0304 -0.247395,-0.0493 -0.353921,-0.0569 -0.106526,-0.008 -0.197865,-0.0115 -0.273951,-0.0115 -0.608711,0 -1.152444,0.11007 -1.631805,0.33073 -0.479357,0.21304 -0.886499,0.50211 -1.221292,0.86734 -0.327179,0.35761 -0.582227,0.77642 -0.764846,1.25579 -0.175001,0.47174 -0.262466,0.96252 -0.262466,1.47231 0,0.32718 0.03792,0.63125 0.114009,0.91279 0.07609,0.28152 0.194138,0.5252 0.35392,0.73064 0.167396,0.20544 0.380649,0.36902 0.639353,0.49077 0.258705,0.11414 0.566759,0.17108 0.924374,0.17108 0.365228,0 0.684906,-0.0647 0.958826,-0.19401 0.273922,-0.13695 0.50573,-0.28899 0.695946,-0.45639 0.06087,0.22826 0.133251,0.42227 0.216949,0.58205 l 1.232773,-0.18256 c -0.08367,-0.22066 -0.144441,-0.43391 -0.182496,-0.63935 -0.03806,-0.20543 -0.05741,-0.41059 -0.05741,-0.61603 0,-0.15977 0.0077,-0.32721 0.02298,-0.50223 0.02281,-0.18261 0.0534,-0.3616 0.09145,-0.53662 z m -14.277793,1.08427 -1.438237,0.22841 -1.164286,4.90772 c -0.05326,0.22067 -0.09506,0.42966 -0.125494,0.6275 -0.02282,0.19022 -0.03404,0.37691 -0.03404,0.55953 0,0.49458 0.14088,0.88643 0.422408,1.17557 0.281529,0.28152 0.749425,0.422 1.403788,0.422 0.357618,0 0.669547,-0.0342 0.935859,-0.10275 0.266312,-0.0685 0.486904,-0.14042 0.661909,-0.21652 l -0.102936,-1.1072 c -0.144569,0.0609 -0.311746,0.11782 -0.501969,0.17109 -0.190221,0.0533 -0.387981,0.0797 -0.593422,0.0797 -0.190221,0 -0.342311,-0.0189 -0.456445,-0.0569 -0.106525,-0.0456 -0.190523,-0.0992 -0.251394,-0.16004 -0.05326,-0.0685 -0.09118,-0.1443 -0.114009,-0.22799 -0.01522,-0.0913 -0.02297,-0.18252 -0.02296,-0.27383 -2e-6,-0.0913 0.0077,-0.19024 0.02296,-0.29676 0.01522,-0.11413 0.04192,-0.25502 0.07997,-0.42242 l 0.570457,-2.36258 h 1.951685 l 0.273952,-1.14118 h -1.95169 z m -14.529185,1.65489 c -0.540231,0 -1.027086,0.11048 -1.460793,0.33114 -0.433707,0.22065 -0.806803,0.51743 -1.118766,0.89027 -0.304356,0.36522 -0.540036,0.78748 -0.707431,1.26683 -0.159786,0.47175 -0.239912,0.96252 -0.239912,1.47232 0,0.31958 0.04566,0.6202 0.136977,0.90172 0.0913,0.27393 0.232185,0.51718 0.422408,0.73023 0.197831,0.21306 0.449005,0.38048 0.753362,0.50223 0.304354,0.12175 0.6697,0.18255 1.095799,0.18255 0.426097,0 0.80653,-0.0416 1.14132,-0.12523 0.334792,-0.0837 0.593305,-0.16763 0.77592,-0.25133 l -0.11401,-1.11868 c -0.517404,0.21307 -1.034841,0.31969 -1.552246,0.31969 -0.875021,0 -1.312744,-0.34604 -1.312744,-1.03844 v -0.1142 c -2e-6,-0.0152 0.0039,-0.0306 0.01148,-0.0459 0.486968,-0.0152 0.966487,-0.053 1.438236,-0.11379 0.479362,-0.0609 0.905461,-0.1752 1.278296,-0.34259 0.380445,-0.1674 0.688501,-0.39952 0.924377,-0.69626 0.235874,-0.29674 0.35392,-0.68473 0.35392,-1.16411 0,-0.46414 -0.159839,-0.84443 -0.479413,-1.14117 -0.319573,-0.29675 -0.768507,-0.44534 -1.346782,-0.44534 z m 9.267543,0 c -0.54023,0 -1.027088,0.11048 -1.460792,0.33114 -0.433707,0.22065 -0.806802,0.51743 -1.118766,0.89027 -0.304354,0.36522 -0.540036,0.78748 -0.707431,1.26683 -0.159785,0.47175 -0.239911,0.96252 -0.239911,1.47232 0,0.31958 0.04566,0.6202 0.136975,0.90172 0.0913,0.27393 0.232185,0.51718 0.422407,0.73023 0.197831,0.21306 0.449007,0.38048 0.753362,0.50223 0.304357,0.12175 0.669702,0.18255 1.0958,0.18255 0.426099,0 0.806531,-0.0416 1.141321,-0.12523 0.334791,-0.0837 0.593306,-0.16763 0.775917,-0.25133 L 65.22283,144.9801 c -0.517403,0.21307 -1.03484,0.31969 -1.552244,0.31969 -0.875022,0 -1.312746,-0.34604 -1.312746,-1.03844 v -0.1142 c 0,-0.0152 0.0039,-0.0306 0.01148,-0.0459 0.486968,-0.0152 0.966488,-0.053 1.438237,-0.11379 0.479359,-0.0609 0.905461,-0.1752 1.278296,-0.34259 0.380445,-0.1674 0.688501,-0.39952 0.924375,-0.69626 0.235876,-0.29674 0.35392,-0.68473 0.35392,-1.16411 0,-0.46414 -0.159837,-0.84443 -0.479411,-1.14117 -0.319573,-0.29675 -0.76851,-0.44534 -1.346783,-0.44534 z m 10.545841,0 c -0.54023,0 -1.027088,0.11048 -1.460794,0.33114 -0.433705,0.22065 -0.806801,0.51743 -1.118765,0.89027 -0.304355,0.36522 -0.540036,0.78748 -0.70743,1.26683 -0.159786,0.47175 -0.239503,0.96252 -0.239503,1.47232 0,0.31958 0.04566,0.6202 0.136977,0.90172 0.0913,0.27393 0.231775,0.51718 0.421996,0.73023 0.197831,0.21306 0.449007,0.38048 0.753362,0.50223 0.304356,0.12175 0.669702,0.18255 1.095799,0.18255 0.426098,0 0.806532,-0.0416 1.141323,-0.12523 0.33479,-0.0837 0.593303,-0.16763 0.775917,-0.25133 l -0.11401,-1.11868 c -0.517406,0.21307 -1.03484,0.31969 -1.552243,0.31969 -0.875024,0 -1.312336,-0.34604 -1.312336,-1.03844 v -0.1142 c 0,-0.0152 0.0035,-0.0306 0.01107,-0.0459 0.486969,-0.0152 0.966486,-0.053 1.438238,-0.11379 0.479359,-0.0609 0.90546,-0.1752 1.278295,-0.34259 0.380448,-0.1674 0.688501,-0.39952 0.924375,-0.69626 0.235877,-0.29674 0.353922,-0.68473 0.353922,-1.16411 0,-0.46414 -0.15984,-0.84443 -0.479412,-1.14117 -0.319574,-0.29675 -0.768505,-0.44534 -1.346782,-0.44534 z m -20.018848,1.13011 c 0.273922,0 0.464341,0.0609 0.570866,0.18257 0.114133,0.12174 0.171015,0.25877 0.171015,0.41096 0,0.38044 -0.209382,0.66566 -0.627871,0.85588 -0.410882,0.19022 -1.072661,0.30029 -1.985727,0.33073 0.05326,-0.25109 0.136851,-0.48279 0.250983,-0.69584 0.121744,-0.22066 0.262623,-0.41121 0.422409,-0.571 0.159785,-0.15979 0.34246,-0.28527 0.547901,-0.37657 0.205437,-0.0913 0.422157,-0.13673 0.650424,-0.13673 z m 9.267544,0 c 0.273919,0 0.464342,0.0609 0.570866,0.18257 0.114132,0.12174 0.171014,0.25877 0.171014,0.41096 0,0.38044 -0.209382,0.66566 -0.62787,0.85588 -0.41088,0.19022 -1.072662,0.30029 -1.985727,0.33073 0.05326,-0.25109 0.13685,-0.48279 0.250984,-0.69584 0.121742,-0.22066 0.26262,-0.41121 0.422407,-0.571 0.159787,-0.15979 0.342458,-0.28527 0.5479,-0.37657 0.20544,-0.0913 0.42216,-0.13673 0.650426,-0.13673 z m 10.54584,0 c 0.27392,0 0.464342,0.0609 0.570865,0.18257 0.114134,0.12174 0.171014,0.25877 0.171014,0.41096 0,0.38044 -0.209381,0.66566 -0.627869,0.85588 -0.410881,0.19022 -1.07266,0.30029 -1.985726,0.33073 0.05326,-0.25109 0.136851,-0.48279 0.250983,-0.69584 0.121742,-0.22066 0.262621,-0.41121 0.422407,-0.571 0.159786,-0.15979 0.34246,-0.28527 0.5479,-0.37657 0.205439,-0.0913 0.42216,-0.13673 0.650426,-0.13673 z m -25.976435,0.0569 c 0.205439,0 0.380364,0.0154 0.524933,0.0459 l -0.559382,2.30527 c -0.03804,0.1674 -0.07209,0.33869 -0.102525,0.5137 -0.02284,0.175 -0.03833,0.34244 -0.04593,0.50223 -0.167397,0.17501 -0.346196,0.31204 -0.536417,0.41097 -0.182615,0.0989 -0.395461,0.14817 -0.638944,0.14817 -0.182613,0 -0.338577,-0.0343 -0.46793,-0.10275 -0.121741,-0.0685 -0.220827,-0.1597 -0.296915,-0.27383 -0.07609,-0.11413 -0.132969,-0.24732 -0.171013,-0.3995 -0.03044,-0.15218 -0.04593,-0.31577 -0.04593,-0.49078 0,-0.34239 0.05341,-0.67342 0.159941,-0.993 0.114133,-0.31957 0.273972,-0.60093 0.479412,-0.84443 0.205439,-0.25108 0.452741,-0.44893 0.741878,-0.5935 0.289138,-0.15218 0.608816,-0.22839 0.958826,-0.22839 z m 32.310912,0 c 0.205435,0 0.380362,0.0154 0.524934,0.0459 l -0.558974,2.30527 c -0.03803,0.1674 -0.07249,0.33869 -0.102937,0.5137 -0.02284,0.175 -0.03791,0.34244 -0.04551,0.50223 -0.167394,0.17501 -0.346194,0.31204 -0.536418,0.41097 -0.182611,0.0989 -0.395866,0.14817 -0.639352,0.14817 -0.182612,0 -0.338581,-0.0343 -0.46793,-0.10275 -0.121743,-0.0685 -0.220413,-0.1597 -0.296507,-0.27383 -0.07607,-0.11413 -0.133366,-0.24732 -0.171421,-0.3995 -0.03045,-0.15218 -0.04552,-0.31577 -0.04552,-0.49078 0,-0.34239 0.053,-0.67342 0.159533,-0.993 0.11413,-0.31957 0.273971,-0.60093 0.479411,-0.84443 0.205436,-0.25108 0.452741,-0.44893 0.741879,-0.5935 0.289138,-0.15218 0.608812,-0.22839 0.958826,-0.22839 z" />
    </g>
  </g>
</svg>
